<svg xmlns="http://www.w3.org/2000/svg" width="273" height="273" viewBox="0 0 273 273" fill="none"><path fill-rule="evenodd" clip-rule="evenodd" d="M231.266 184.199C238.95 185.446 244.166 192.645 242.909 200.266C241.652 207.888 234.393 213.061 226.716 211.815C219.038 210.568 213.816 203.368 215.072 195.753C216.329 188.132 223.588 182.958 231.266 184.199ZM72.7213 73.9646C86.9696 77.3227 99.7259 86.4463 110.382 96.896C122.478 108.757 131.855 122.298 137.616 130.852C140.233 134.108 142.827 137.386 145.409 140.653C146.189 141.501 146.855 142.195 147.4 142.702C151.979 146.982 162.676 162.144 177.446 173.442C187.62 181.222 199.751 187.176 213.156 186.294C212.691 186.914 212.261 187.557 211.87 188.234C198.552 188.667 186.478 182.702 176.304 174.916C173.527 172.793 170.893 170.534 168.414 168.234C173.188 173.357 178.003 177.967 182.898 181.775C190.937 188.035 200.428 191.951 209.96 192.771C209.793 193.368 209.655 193.977 209.541 194.603C199.745 193.71 190.007 189.68 181.738 183.243C172.293 175.889 163.158 165.576 153.988 154.318C158.068 160.317 163.232 167.381 169.401 174.119C179.896 185.588 193.307 196.146 209.254 198.741C209.277 199.396 209.334 200.039 209.42 200.676C192.831 198.132 178.869 187.278 167.989 175.389C157.924 164.387 150.499 152.531 146.063 145.747C144.261 142.998 143.016 141.103 142.282 140.562C141.765 140.18 140.807 138.945 139.481 137.016C139.257 136.692 139.022 136.344 138.77 135.974C130.369 126.458 116.729 111.455 100.363 100.948C89.7183 94.1185 77.9145 89.1896 65.6516 89.0132C66.323 88.4554 66.9542 87.8578 67.5453 87.2203C79.4925 87.8464 90.9807 92.7127 101.384 99.3889C110.313 105.115 118.433 112.172 125.348 118.957C119.839 112.61 114.198 106.623 108.362 101.375C96.8682 91.0451 84.5997 83.5834 71.0112 81.9841C71.2752 81.4035 71.5105 80.8002 71.7171 80.1855C85.4891 81.9442 97.9528 89.5083 109.625 99.9979C113.303 103.299 116.895 106.896 120.43 110.692C116.981 106.526 113.177 102.286 109.056 98.2449C98.7217 88.1196 86.3958 79.2236 72.6237 75.8884C72.6868 75.2452 72.7213 74.6021 72.7213 73.9646ZM234.262 179.122C252.159 167.893 254.501 150.659 251.672 135.064C248.722 118.792 240.183 104.267 237.532 99.9353L237.418 99.8215C237.05 99.4515 237.05 98.8539 237.423 98.4839C237.601 98.3075 237.831 98.2164 238.066 98.2108C238.313 98.1937 238.554 98.2677 238.743 98.427C238.881 98.501 239.001 98.6149 239.087 98.7571L239.179 98.9051C257.364 117.488 263.952 146.931 257.697 169.401C255.551 177.107 251.907 183.994 246.714 189.367C246.415 188.769 246.094 188.189 245.738 187.625C250.501 182.537 253.858 176.083 255.861 168.894C260.922 150.716 257.347 127.853 245.847 110.254C249.927 117.767 254.185 127.09 256.297 137.033C259.573 152.457 257.714 169.367 242.209 183.442C241.739 183.021 241.251 182.623 240.74 182.253C255.826 168.673 257.622 152.321 254.46 137.414C253.956 135.035 253.324 132.685 252.601 130.397C252.946 131.825 253.255 133.271 253.519 134.728C256.406 150.636 254.082 168.16 236.517 179.879C235.788 179.595 235.036 179.339 234.262 179.122ZM34.2342 80.2197C34.4407 80.8287 34.676 81.4263 34.94 82.0068C17.0535 92.7184 12.876 110.533 14.0983 127.42C14.2245 118.074 16.4797 108.626 22.4935 100.465C26.2062 95.4276 31.3478 90.8743 38.3199 87.1349C38.756 87.613 39.2208 88.074 39.7028 88.5123C32.7594 92.1492 27.658 96.6057 24.0027 101.563C16.3305 111.979 15.0681 124.574 16.4568 136.236C17.1339 141.933 18.4422 147.414 19.9629 152.321C18.798 148.285 17.7823 144.085 17.1224 139.839C15.619 130.163 15.969 120.254 20.5941 111.444C24.6569 103.697 32.0134 96.7765 44.3796 91.6427C45.1887 92.0297 46.0265 92.3655 46.8987 92.6387C33.9587 97.6302 26.3497 104.506 22.2582 112.303C17.8225 120.761 17.5356 130.277 18.9759 139.56C20.8064 151.336 25.4258 162.748 28.163 171.256C28.295 171.433 28.3581 171.644 28.3524 171.848C28.4729 172.23 28.5876 172.605 28.7024 172.975C28.7254 173.061 28.7426 173.14 28.7426 173.226C28.7999 173.596 28.6278 173.977 28.2835 174.176C27.8359 174.432 27.2621 174.279 27.0038 173.829C27.0038 173.829 26.08 172.23 24.7315 169.447C21.145 163.1 14.7926 148.507 12.6981 132.411C10.2192 113.407 13.6564 92.3655 34.2342 80.2197ZM55.4087 60.1853C63.0866 61.4318 68.3085 68.6259 67.0518 76.2469C65.7951 83.868 58.5361 89.0416 50.8582 87.7952C43.1688 86.5487 37.9526 79.3489 39.2093 71.7335C40.466 64.1125 47.725 58.9389 55.4087 60.1853Z" fill="#64D3FF"></path><path d="M212.456 112.155L212.467 112.161C214.315 112.878 216.209 112.992 218.028 112.218C219.807 111.461 221.339 109.89 222.096 108.131L222.154 108.001C222.544 107.044 222.739 106.02 222.728 104.99C222.716 103.96 222.492 102.941 222.079 101.996C221.666 101.051 221.064 100.197 220.312 99.486C219.56 98.7745 218.671 98.2168 217.701 97.8525C215.824 97.1581 213.868 96.5548 211.917 96.0767C206.913 94.8416 201.771 94.2156 196.612 94.227C189.13 94.227 182.812 95.3482 177.641 97.585C172.471 99.8218 168.609 102.85 166.05 106.652C163.491 110.459 162.211 114.711 162.211 119.407C162.211 124.802 163.628 129.099 166.452 132.321C169.286 135.554 172.678 137.904 176.637 139.367C180.614 140.835 185.715 142.304 191.959 143.778C196.021 144.706 199.246 145.559 201.633 146.333C204.032 147.113 206 148.143 207.544 149.435C209.099 150.739 209.879 152.384 209.879 154.37C209.879 157.062 208.56 159.213 205.943 160.824C203.332 162.435 199.315 163.226 193.921 163.226C189.066 163.226 184.252 162.463 179.397 160.91C177.469 160.306 175.587 159.566 173.768 158.701C172.844 158.274 171.846 158.035 170.824 157.995C169.809 157.956 168.787 158.115 167.835 158.468C166.882 158.821 166.004 159.356 165.258 160.05C164.547 160.71 164.036 161.484 163.623 162.355L163.548 162.52C162.716 164.347 162.641 166.425 163.33 168.303C164.024 170.187 165.43 171.724 167.249 172.594C169.591 173.664 172.201 174.615 175.094 175.446C181.13 177.182 187.46 178.058 193.927 178.058C201.375 178.053 207.687 176.931 212.881 174.7C218.091 172.463 221.987 169.441 224.587 165.634C227.186 161.826 228.483 157.614 228.483 152.998C228.483 147.603 227.066 143.345 224.248 140.204C221.482 137.096 217.982 134.711 214.063 133.277C210.086 131.808 204.979 130.34 198.741 128.866C192.728 127.551 188.246 126.214 185.302 124.848C183.822 124.165 182.697 123.288 181.945 122.23C181.193 121.165 180.821 119.924 180.821 118.502C180.821 115.661 182.117 113.373 184.694 111.643C187.27 109.913 191.224 109.065 196.544 109.065C201.846 109.031 207.154 110.072 212.456 112.155ZM143.452 116.805C141.76 116.885 140.095 116.373 138.747 115.36C134.076 111.751 128.647 109.947 122.461 109.958C117.366 109.958 112.81 111.068 108.804 113.288C104.862 115.445 101.614 118.667 99.4392 122.577C97.2013 126.549 96.0823 131.069 96.0823 136.123C96.0823 141.177 97.2013 145.696 99.4392 149.674C101.614 153.584 104.862 156.806 108.804 158.963C112.81 161.183 117.366 162.293 122.461 162.293C128.63 162.293 134.059 160.483 138.73 156.857C140.084 155.827 141.76 155.309 143.464 155.383C145.168 155.463 146.786 156.134 148.043 157.278L148.152 157.375L148.164 157.364C149.093 158.24 149.816 159.31 150.287 160.5C150.775 161.729 150.97 163.055 150.866 164.376C150.763 165.696 150.356 166.971 149.678 168.109C149.001 169.248 148.072 170.221 146.964 170.949C144.979 172.259 142.873 173.385 140.686 174.325C135.028 176.749 128.728 177.984 121.779 178.03H121.423C113.091 178.03 105.562 176.237 98.831 172.646C92.0999 169.06 86.8091 164.08 82.9587 157.717C79.1083 151.353 77.1859 144.159 77.1802 136.128C77.1802 128.098 79.1083 120.903 82.9587 114.54C86.8091 108.177 92.0999 103.197 98.831 99.6112C105.562 96.0255 113.131 94.227 121.538 94.227C128.624 94.227 135.023 95.462 140.744 97.9322C142.879 98.8485 144.927 99.947 146.867 101.216C147.986 101.945 148.921 102.912 149.604 104.056C150.287 105.195 150.7 106.475 150.809 107.796C150.918 109.116 150.723 110.448 150.241 111.683C149.753 112.918 148.996 114.028 148.009 114.927C146.752 116.06 145.145 116.726 143.452 116.805ZM42.1992 106.373C42.1992 104.95 42.4804 103.538 43.0313 102.224C43.5822 100.909 44.3855 99.7136 45.4012 98.7062C46.4169 97.6988 47.622 96.902 48.9475 96.3556C50.2731 95.8092 51.6962 95.5303 53.1308 95.5303H53.7907C55.2253 95.5303 56.6484 95.8092 57.9739 96.3556C59.2995 96.902 60.5045 97.6988 61.5202 98.7062C62.5359 99.7136 63.3393 100.909 63.8902 102.224C64.4411 103.538 64.7222 104.95 64.7222 106.373V165.787C64.7222 168.661 63.5688 171.422 61.5202 173.454C59.4716 175.486 56.6885 176.63 53.7907 176.63H53.1308C51.6962 176.63 50.2731 176.351 48.9475 175.804C47.622 175.258 46.4169 174.461 45.4012 173.454C44.3855 172.446 43.5822 171.251 43.0313 169.936C42.4804 168.622 42.1992 167.21 42.1992 165.787V106.373Z" fill="#0574BB"></path></svg>